HIERARCHY
ROOT Hips
{
	OFFSET 0.000000 83.214638 0.000000
	CHANNELS 6 Xposition Yposition Zposition Xrotation Yrotation Zrotation
	JOINT Pelvis
	{
		OFFSET 0.000000 0.000000 0.000000
		CHANNELS 3 Xrotation Yrotation Zrotation
		JOINT LeftUpLeg
		{
			OFFSET 8.479700 -4.795502 -0.379100
			CHANNELS 3 Xrotation Yrotation Zrotation
			JOINT LeftLeg
			{
				OFFSET 0.024144 -32.555107 0.112900
				CHANNELS 3 Xrotation Yrotation Zrotation
				JOINT LeftFoot
				{
					OFFSET -0.024144 -32.638630 -3.012600
					CHANNELS 3 Xrotation Yrotation Zrotation
					JOINT LeftToeBase
					{
						OFFSET 0.970200 -13.225400 11.864200
						CHANNELS 3 Xrotation Yrotation Zrotation
						End Site
						{
							OFFSET 0.000000 12.319262 0.000000
						}
					}
					JOINT LFootTongue
					{
						OFFSET 1.142400 -1.059800 6.665200
						CHANNELS 3 Xrotation Yrotation Zrotation
						End Site
						{
							OFFSET 0.000000 12.319262 0.000000
						}
					}
				}
				JOINT LeftPantLeg
				{
					OFFSET 0.918482 -16.533964 -2.284700
					CHANNELS 3 Xrotation Yrotation Zrotation
					End Site
					{
						OFFSET 0.350399 24.744368 0.000000
					}
				}
			}
		}
		JOINT RightUpLeg
		{
			OFFSET -8.479700 -4.795502 -0.379100
			CHANNELS 3 Xrotation Yrotation Zrotation
			JOINT RightLeg
			{
				OFFSET -0.023144 -32.555092 0.112900
				CHANNELS 3 Xrotation Yrotation Zrotation
				JOINT RightFoot
				{
					OFFSET 0.023144 -32.638641 -3.012700
					CHANNELS 3 Xrotation Yrotation Zrotation
					JOINT RightToeBase
					{
						OFFSET -0.970200 -13.225400 11.864200
						CHANNELS 3 Xrotation Yrotation Zrotation
						End Site
						{
							OFFSET 0.000000 12.319244 0.000000
						}
					}
					JOINT RFootTongue
					{
						OFFSET -1.142200 -1.059800 6.665200
						CHANNELS 3 Xrotation Yrotation Zrotation
						End Site
						{
							OFFSET 0.000000 12.319243 0.000000
						}
					}
				}
				JOINT RightPantLeg
				{
					OFFSET -0.919482 -16.533978 -2.284800
					CHANNELS 3 Xrotation Yrotation Zrotation
					End Site
					{
						OFFSET -0.350400 24.744419 0.000000
					}
				}
			}
		}
	}
	JOINT Spine
	{
		OFFSET 0.000000 7.722000 1.166200
		CHANNELS 3 Xrotation Yrotation Zrotation
		JOINT Spine1
		{
			OFFSET 0.000000 12.024101 0.248800
			CHANNELS 3 Xrotation Yrotation Zrotation
			JOINT Spine2
			{
				OFFSET 0.000000 11.502998 -0.491200
				CHANNELS 3 Xrotation Yrotation Zrotation
				JOINT Neck
				{
					OFFSET 0.000000 18.430702 -3.123100
					CHANNELS 3 Xrotation Yrotation Zrotation
					JOINT Head
					{
						OFFSET 0.000000 9.051102 1.034000
						CHANNELS 3 Xrotation Yrotation Zrotation
						JOINT HairB
						{
							OFFSET 0.208400 24.786102 24.822300
							CHANNELS 3 Xrotation Yrotation Zrotation
							End Site
							{
								OFFSET 0.000000 32.263779 0.000000
							}
						}
						JOINT HairA
						{
							OFFSET -7.081100 24.428299 23.196600
							CHANNELS 3 Xrotation Yrotation Zrotation
							End Site
							{
								OFFSET 0.000000 32.263779 0.000000
							}
						}
						JOINT Hat
						{
							OFFSET 16.728800 15.048294 -15.439601
							CHANNELS 3 Xrotation Yrotation Zrotation
							End Site
							{
								OFFSET 0.000000 32.263779 0.000000
							}
						}
					}
				}
				JOINT LeftShoulder
				{
					OFFSET 6.197800 13.665199 -4.064700
					CHANNELS 3 Xrotation Yrotation Zrotation
					JOINT LeftArm
					{
						OFFSET 7.778100 -0.187103 -1.709300
						CHANNELS 3 Xrotation Yrotation Zrotation
						JOINT LeftForeArm
						{
							OFFSET 22.049376 0.000000 0.000000
							CHANNELS 3 Xrotation Yrotation Zrotation
							JOINT LeftHand
							{
								OFFSET 23.009392 0.000000 0.000000
								CHANNELS 3 Xrotation Yrotation Zrotation
								JOINT LeftHandThumb1
								{
									OFFSET 3.507191 -2.063065 3.133727
									CHANNELS 3 Xrotation Yrotation Zrotation
									JOINT LeftHandThumb2
									{
										OFFSET 3.101337 -1.790558 1.790558
										CHANNELS 3 Xrotation Yrotation Zrotation
										JOINT LeftHandThumb3
										{
											OFFSET 3.058640 -1.765907 1.765906
											CHANNELS 3 Xrotation Yrotation Zrotation
											End Site
											{
												OFFSET -0.415260 3.926476 -0.049563
											}
										}
									}
								}
								JOINT LeftHandIndex1
								{
									OFFSET 11.334419 -0.901459 3.706815
									CHANNELS 3 Xrotation Yrotation Zrotation
									JOINT LeftHandIndex2
									{
										OFFSET 3.283112 0.000000 0.000000
										CHANNELS 3 Xrotation Yrotation Zrotation
										JOINT LeftHandIndex3
										{
											OFFSET 3.323853 0.000000 0.000000
											CHANNELS 3 Xrotation Yrotation Zrotation
											End Site
											{
												OFFSET -1.135597 3.097809 0.402452
											}
										}
									}
								}
								JOINT LeftHandMiddle1
								{
									OFFSET 11.335861 0.000000 0.000000
									CHANNELS 3 Xrotation Yrotation Zrotation
									JOINT LeftHandMiddle2
									{
										OFFSET 3.410492 0.000000 0.000000
										CHANNELS 3 Xrotation Yrotation Zrotation
										JOINT LeftHandMiddle3
										{
											OFFSET 3.312172 0.000000 0.000000
											CHANNELS 3 Xrotation Yrotation Zrotation
											End Site
											{
												OFFSET -1.150200 3.080154 0.400270
											}
										}
									}
								}
								JOINT LeftHandRing1
								{
									OFFSET 11.514786 -0.013176 -3.003090
									CHANNELS 3 Xrotation Yrotation Zrotation
									JOINT LeftHandRing2
									{
										OFFSET 3.053307 0.000000 0.000000
										CHANNELS 3 Xrotation Yrotation Zrotation
										JOINT LeftHandRing3
										{
											OFFSET 3.295807 0.000000 0.000000
											CHANNELS 3 Xrotation Yrotation Zrotation
											End Site
											{
												OFFSET -1.281006 3.013344 0.375733
											}
										}
									}
								}
								JOINT LeftHandPinky1
								{
									OFFSET 10.518692 -0.960396 -5.730441
									CHANNELS 3 Xrotation Yrotation Zrotation
									JOINT LeftHandPinky2
									{
										OFFSET 2.861649 0.000000 0.000000
										CHANNELS 3 Xrotation Yrotation Zrotation
										JOINT LeftHandPinky3
										{
											OFFSET 2.863380 0.000000 0.000000
											CHANNELS 3 Xrotation Yrotation Zrotation
											End Site
											{
												OFFSET -0.843597 2.711159 0.369971
											}
										}
									}
								}
							}
							JOINT LSleeve
							{
								OFFSET 6.676277 -0.344902 -1.011730
								CHANNELS 3 Xrotation Yrotation Zrotation
								End Site
								{
									OFFSET 0.000000 14.885353 0.000000
								}
							}
						}
					}
				}
				JOINT RightShoulder
				{
					OFFSET -6.197800 13.665199 -4.064700
					CHANNELS 3 Xrotation Yrotation Zrotation
					JOINT RightArm
					{
						OFFSET -7.778100 -0.187103 -1.709300
						CHANNELS 3 Xrotation Yrotation Zrotation
						JOINT RightForeArm
						{
							OFFSET -22.049376 0.000000 0.000000
							CHANNELS 3 Xrotation Yrotation Zrotation
							JOINT RightHand
							{
								OFFSET -23.009392 0.000000 0.000000
								CHANNELS 3 Xrotation Yrotation Zrotation
								JOINT RightHandThumb1
								{
									OFFSET -3.507191 -2.063065 3.133727
									CHANNELS 3 Xrotation Yrotation Zrotation
									JOINT RightHandThumb2
									{
										OFFSET -3.101337 -1.790558 1.790558
										CHANNELS 3 Xrotation Yrotation Zrotation
										JOINT RightHandThumb3
										{
											OFFSET -3.058640 -1.765907 1.765906
											CHANNELS 3 Xrotation Yrotation Zrotation
											End Site
											{
												OFFSET 0.415260 3.926476 -0.049563
											}
										}
									}
								}
								JOINT RightHandIndex1
								{
									OFFSET -11.334419 -0.901459 3.706815
									CHANNELS 3 Xrotation Yrotation Zrotation
									JOINT RightHandIndex2
									{
										OFFSET -3.283112 0.000000 0.000000
										CHANNELS 3 Xrotation Yrotation Zrotation
										JOINT RightHandIndex3
										{
											OFFSET -3.323853 0.000000 0.000000
											CHANNELS 3 Xrotation Yrotation Zrotation
											End Site
											{
												OFFSET 1.135597 3.097809 0.402452
											}
										}
									}
								}
								JOINT RightHandMiddle1
								{
									OFFSET -11.335861 0.000000 0.000000
									CHANNELS 3 Xrotation Yrotation Zrotation
									JOINT RightHandMiddle2
									{
										OFFSET -3.410492 0.000000 0.000000
										CHANNELS 3 Xrotation Yrotation Zrotation
										JOINT RightHandMiddle3
										{
											OFFSET -3.312172 0.000000 0.000000
											CHANNELS 3 Xrotation Yrotation Zrotation
											End Site
											{
												OFFSET 1.150200 3.080154 0.400270
											}
										}
									}
								}
								JOINT RightHandRing1
								{
									OFFSET -11.514786 -0.013176 -3.003090
									CHANNELS 3 Xrotation Yrotation Zrotation
									JOINT RightHandRing2
									{
										OFFSET -3.053307 0.000000 0.000000
										CHANNELS 3 Xrotation Yrotation Zrotation
										JOINT RightHandRing3
										{
											OFFSET -3.295807 0.000000 0.000000
											CHANNELS 3 Xrotation Yrotation Zrotation
											End Site
											{
												OFFSET 1.281006 3.013344 0.375733
											}
										}
									}
								}
								JOINT RightHandPinky1
								{
									OFFSET -10.518692 -0.960396 -5.730441
									CHANNELS 3 Xrotation Yrotation Zrotation
									JOINT RightHandPinky2
									{
										OFFSET -2.861649 0.000000 0.000000
										CHANNELS 3 Xrotation Yrotation Zrotation
										JOINT RightHandPinky3
										{
											OFFSET -2.863380 0.000000 0.000000
											CHANNELS 3 Xrotation Yrotation Zrotation
											End Site
											{
												OFFSET 0.843597 2.711159 0.369971
											}
										}
									}
								}
							}
							JOINT RSleeve
							{
								OFFSET -6.676277 -0.344902 -1.011730
								CHANNELS 3 Xrotation Yrotation Zrotation
								End Site
								{
									OFFSET 0.000000 14.885353 0.000000
								}
							}
						}
					}
				}
				JOINT Backpack
				{
					OFFSET 0.000000 -2.471497 36.677502
					CHANNELS 3 Xrotation Yrotation Zrotation
					End Site
					{
						OFFSET 0.000000 20.427315 0.000000
					}
				}
				JOINT Hood
				{
					OFFSET 0.000000 18.754097 -10.431000
					CHANNELS 3 Xrotation Yrotation Zrotation
					JOINT Hood1
					{
						OFFSET 0.000000 -5.011002 -7.685901
						CHANNELS 3 Xrotation Yrotation Zrotation
						End Site
						{
							OFFSET 0.000000 9.175140 0.000000
						}
					}
				}
				JOINT LHoodieString
				{
					OFFSET 5.250500 16.397697 3.089900
					CHANNELS 3 Xrotation Yrotation Zrotation
					JOINT LHoodieString1
					{
						OFFSET 0.257700 -6.364304 3.694600
						CHANNELS 3 Xrotation Yrotation Zrotation
						JOINT LHoodieString2
						{
							OFFSET 0.000000 -9.643799 2.679100
							CHANNELS 3 Xrotation Yrotation Zrotation
							End Site
							{
								OFFSET 0.000000 10.009018 0.000000
							}
						}
					}
				}
				JOINT RHoodieString
				{
					OFFSET -5.250500 16.397697 3.089900
					CHANNELS 3 Xrotation Yrotation Zrotation
					JOINT RHoodieString1
					{
						OFFSET -0.257700 -6.364304 3.694600
						CHANNELS 3 Xrotation Yrotation Zrotation
						JOINT RHoodieString2
						{
							OFFSET 0.000000 -9.643799 2.679100
							CHANNELS 3 Xrotation Yrotation Zrotation
							End Site
							{
								OFFSET 0.000000 10.009018 0.000000
							}
						}
					}
				}
			}
			JOINT LBackpack_Strap
			{
				OFFSET 15.223200 -7.719803 -6.610900
				CHANNELS 3 Xrotation Yrotation Zrotation
				End Site
				{
					OFFSET 0.000000 16.040596 0.000000
				}
			}
			JOINT RBackpack_Strap
			{
				OFFSET -15.223000 -7.719803 -6.610900
				CHANNELS 3 Xrotation Yrotation Zrotation
				End Site
				{
					OFFSET 0.000000 16.040596 0.000000
				}
			}
		}
	}
	JOINT BoyFacialAnim_Joint
	{
		OFFSET 1.000000 -82.208099 -1.550900
		CHANNELS 3 Xrotation Yrotation Zrotation
		End Site
		{
			OFFSET 0.000000 30.012791 0.000000
		}
	}
}
MOTION
Frames: 5
Frame Time: 0.033333
0.021630 46.745392 0.826240 -9.001998 4.194676 5.466127 -0.000001 0.000000 0.000001 -84.849015 2.903843 19.776055 99.834259 4.982311 -7.745576 -6.288805 6.011983 6.826952 -0.000000 -0.000000 -0.000000 -0.000000 -0.000000 -0.000000 0.000001 0.000002 -0.000000 -90.495881 -0.140379 -21.870793 96.742738 -5.863456 2.165578 -0.536596 0.109582 -10.215215 -0.000000 0.000000 0.000000 -0.000000 0.000000 0.000000 -0.000000 0.000000 0.000001 17.109619 4.583366 -1.888590 5.416124 0.649307 2.926034 5.388200 0.751820 2.677425 0.193910 -1.672641 -0.444732 -13.440342 -8.539105 -2.056739 0.000000 0.000000 -0.000000 0.000000 0.000000 -0.000000 0.000000 0.000000 -0.000000 0.657828 -3.921805 6.800599 -54.334442 -40.497056 -71.140737 0.000128 -75.150160 0.000127 -34.397236 15.090931 19.484978 8.033893 -4.085224 -15.484713 4.400894 24.645658 10.700245 -0.000002 -0.000001 0.000001 -0.525058 -14.179135 -2.996883 2.036454 4.892467 -45.177559 -0.000000 0.000001 -0.000005 2.112770 4.966896 -46.065781 2.115553 4.969567 -46.097978 0.000002 -0.000003 0.000002 3.235043 5.839726 -57.941130 3.235019 5.839737 -57.941116 -0.000001 -0.000000 -0.000000 8.180594 7.891760 -68.571800 4.391818 2.329791 -68.807783 0.000000 0.000003 0.000002 -0.000002 -0.000000 0.000001 1.713203 10.335719 -8.738477 -38.339512 10.399238 70.640009 0.004337 90.514930 -0.004275 -37.595598 -12.359100 -24.893278 -9.461025 6.808561 11.387514 16.566696 -27.311934 3.205087 0.000000 0.000001 -0.000001 0.457116 13.985056 -1.060391 2.355148 -5.219209 48.550771 -0.000001 0.000000 0.000004 3.968827 -6.281957 65.111702 3.931581 -6.262102 64.212937 0.000001 -0.000000 -0.000002 4.056499 -6.322547 65.887720 4.016468 -6.302181 64.988861 -0.000000 0.000000 0.000000 4.573927 -6.533229 70.375360 4.517433 -6.511105 69.475899 -0.000002 -0.000001 -0.000003 0.000001 0.000001 -0.000002 0.000001 0.000000 -0.000000 0.000001 0.000000 -0.000000 0.000001 0.000000 -0.000000 0.000001 0.000000 -0.000000 0.000001 0.000000 -0.000000 0.000001 0.000000 -0.000000 0.000001 0.000000 -0.000000 0.000001 0.000000 -0.000000 0.000001 0.000000 -0.000000 -0.000000 -0.000000 -0.000000 -0.000000 -0.000000 -0.000000 -0.000001 0.000000 0.000001 
0.030223 46.729919 0.801204 -9.228032 4.198718 5.419975 0.000001 0.000000 0.000000 -84.658911 2.776933 19.705903 99.860535 4.926696 -7.745154 -6.253850 6.018875 6.784162 0.000000 0.000002 0.000000 0.000000 0.000002 0.000000 -0.000000 0.000001 -0.000000 -90.279180 -0.191194 -21.864873 96.742526 -5.905967 2.142470 -0.525371 0.111160 -10.181401 0.000000 0.000000 -0.000000 0.000000 0.000000 -0.000000 0.000000 -0.000002 0.000001 17.046086 4.619438 -2.040527 5.429155 0.652141 2.938119 5.400592 0.757019 2.690298 0.439179 -1.650574 -0.538816 -13.210210 -8.743936 -1.749636 -0.000000 0.000000 0.000000 -0.000000 0.000000 0.000000 -0.000000 0.000000 0.000000 0.652503 -3.877994 6.807192 -53.715056 -41.004515 -70.508828 -0.000043 -76.117008 -0.000039 -34.268903 16.045320 20.103065 8.033891 -4.085225 -15.484713 4.666419 25.750582 7.642617 -0.000000 0.000001 0.000000 -0.525342 -14.178987 -2.998071 2.042387 4.898388 -45.247490 -0.000003 -0.000001 0.000002 2.112769 4.966894 -46.065787 2.115556 4.969562 -46.097981 0.000000 -0.000003 0.000002 3.235042 5.839726 -57.941130 3.235017 5.839737 -57.941109 -0.000002 0.000001 -0.000002 8.180594 7.891761 -68.571800 4.391817 2.329791 -68.807790 -0.000003 0.000001 0.000002 -0.000001 -0.000000 -0.000000 1.713876 10.404654 -8.587326 -37.818016 9.863434 70.733029 -0.003712 91.023841 0.003512 -38.198673 -12.051063 -24.671516 -9.439411 6.780922 11.210751 15.698015 -24.955308 1.485892 0.000000 0.000001 -0.000001 0.496996 13.929126 -1.242820 2.241781 -5.117250 47.292230 -0.000001 0.000003 0.000002 3.973428 -6.283126 64.950687 3.931581 -6.262098 64.212937 0.000001 0.000001 -0.000004 4.060203 -6.323293 65.726699 4.016469 -6.302181 64.988854 -0.000001 -0.000003 0.000003 4.572247 -6.531938 70.214194 4.517433 -6.511105 69.475899 -0.000001 0.000000 -0.000001 0.000001 -0.000005 -0.000001 0.000000 -0.000000 -0.000000 0.000000 -0.000000 -0.000000 0.000000 -0.000000 -0.000000 0.000000 -0.000000 -0.000000 0.000000 -0.000000 -0.000000 0.000000 0.000001 0.000000 0.000000 -0.000000 -0.000000 0.000000 -0.000000 -0.000000 0.000000 0.000001 0.000000 -0.000000 -0.000000 -0.000000 -0.000000 -0.000000 -0.000000 0.000001 0.000000 0.000000 
0.042666 46.711876 0.769110 -9.464480 4.130985 5.325214 -0.000000 0.000000 -0.000000 -84.481920 2.669648 19.772049 99.901304 4.828212 -7.726524 -6.240912 6.012595 6.797708 0.000000 0.000003 0.000000 0.000000 0.000003 0.000000 0.000000 0.000002 0.000001 -90.037111 -0.279336 -21.759091 96.710923 -5.961968 2.117467 -0.483175 0.106195 -10.131249 -0.000000 0.000000 0.000000 -0.000000 0.000000 0.000000 0.000000 -0.000001 -0.000000 16.987918 4.622472 -2.145310 5.378285 0.647065 2.824812 5.350315 0.752448 2.609915 0.689326 -1.613470 -0.575524 -12.598676 -8.901511 -1.334407 0.000001 0.000000 -0.000000 0.000001 0.000000 -0.000000 0.000001 0.000000 -0.000000 0.636378 -3.780215 6.779093 -53.126830 -41.272671 -70.054409 0.000037 -76.995015 0.000049 -34.534061 17.030383 20.683119 8.033892 -4.085226 -15.484715 5.074017 26.166342 4.979140 -0.000007 -0.000002 0.000001 -0.525786 -14.178718 -2.999951 2.045711 4.901625 -45.286186 -0.000003 -0.000001 -0.000007 2.112772 4.966896 -46.065784 2.115554 4.969564 -46.097981 0.000001 -0.000001 0.000000 3.235044 5.839726 -57.941130 3.235014 5.839736 -57.941116 -0.000000 0.000002 -0.000002 8.180594 7.891760 -68.571800 4.391818 2.329786 -68.807783 -0.000000 0.000004 -0.000001 0.000001 0.000001 0.000000 1.712302 10.447960 -8.478592 -37.340231 9.388527 70.784823 -0.007094 91.689675 0.007007 -38.694357 -12.524304 -24.538981 -9.394053 6.798197 10.827649 15.362385 -23.614614 0.735463 0.000000 0.000000 -0.000001 0.509590 13.846856 -1.316786 2.204258 -5.082488 46.869998 -0.000000 -0.000001 0.000009 3.958469 -6.275177 64.579254 3.931582 -6.262098 64.212944 0.000002 -0.000000 0.000003 4.044070 -6.315101 65.355218 4.016470 -6.302176 64.988854 -0.000000 0.000001 0.000006 4.549035 -6.522914 69.842468 4.517434 -6.511104 69.475899 -0.000000 -0.000001 0.000002 0.000001 -0.000001 -0.000001 0.000001 0.000001 -0.000000 0.000001 0.000001 -0.000000 0.000001 0.000001 -0.000000 0.000001 0.000001 -0.000000 0.000001 0.000001 -0.000000 0.000001 0.000001 0.000001 0.000001 0.000001 -0.000000 0.000001 0.000001 -0.000000 0.000001 0.000001 0.000001 -0.000000 0.000001 -0.000000 -0.000000 0.000001 -0.000000 -0.000000 0.000000 -0.000000 
0.056019 46.687386 0.729290 -9.689298 3.991546 5.179126 0.000000 0.000000 0.000000 -84.334333 2.530796 19.932966 99.979045 4.836708 -7.715286 -6.248482 5.988662 6.824848 -0.000000 0.000002 0.000000 -0.000000 0.000002 0.000000 -0.000000 0.000001 0.000001 -89.800868 -0.412966 -21.553248 96.650230 -6.030341 2.089960 -0.407950 0.093381 -10.075566 -0.000000 -0.000002 -0.000000 -0.000000 -0.000002 -0.000000 0.000000 0.000001 0.000000 16.938210 4.581568 -2.205086 5.263125 0.633654 2.572466 5.237021 0.737159 2.431831 0.782234 -1.555647 -0.546227 -11.733136 -8.935515 -0.840541 0.000001 0.000000 0.000000 0.000001 0.000000 0.000000 0.000001 0.000000 0.000000 0.610566 -3.634468 6.546902 -52.513291 -41.387439 -69.640233 -0.000078 -77.559824 -0.000075 -35.279573 17.678766 21.046917 8.033891 -4.085226 -15.484717 5.460861 25.969619 3.083005 -0.000001 -0.000001 -0.000000 -0.526136 -14.178581 -3.001261 2.049578 4.905427 -45.331170 0.000000 -0.000000 -0.000002 2.112768 4.966896 -46.065787 2.115556 4.969561 -46.097985 0.000001 -0.000003 -0.000000 3.235039 5.839727 -57.941130 3.235018 5.839737 -57.941109 0.000001 0.000002 -0.000000 8.180592 7.891762 -68.571793 4.391818 2.329793 -68.807783 0.000001 -0.000001 0.000001 -0.000002 -0.000003 0.000001 1.706533 10.419693 -8.468187 -36.974874 9.262150 70.864230 0.010414 92.311646 -0.010382 -38.881753 -13.631104 -24.655432 -9.357182 6.837806 10.510643 15.561908 -23.581389 1.139717 0.000001 0.000001 -0.000004 0.500856 13.793810 -1.292210 2.233415 -5.109549 47.198410 0.000002 0.000002 0.000000 3.938372 -6.265384 64.264540 3.931580 -6.262101 64.212944 0.000001 0.000001 -0.000002 4.023247 -6.305288 65.040449 4.016468 -6.302180 64.988861 -0.000001 -0.000002 -0.000003 4.523919 -6.513505 69.527453 4.517433 -6.511104 69.475899 -0.000000 -0.000002 0.000005 -0.000000 0.000001 0.000001 0.000002 0.000001 0.000000 0.000002 0.000001 0.000000 0.000002 0.000001 0.000000 0.000002 0.000001 0.000000 0.000002 0.000001 0.000000 0.000002 0.000000 0.000001 0.000002 0.000001 0.000000 0.000002 0.000001 0.000000 0.000002 0.000000 0.000001 0.000000 -0.000000 0.000000 0.000000 -0.000000 0.000000 0.000000 0.000000 0.000000 
0.067101 46.655991 0.681279 -9.901846 3.793578 4.997900 -0.000001 -0.000000 -0.000000 -84.207722 2.331425 20.133651 100.084183 4.925655 -7.708697 -6.252009 5.948125 6.819150 0.000000 -0.000000 -0.000000 0.000000 -0.000000 0.000000 0.000000 0.000000 -0.000000 -89.577050 -0.581306 -21.295702 96.569538 -6.097538 2.086390 -0.309410 0.081206 -10.051399 -0.000000 0.000000 0.000000 -0.000000 0.000000 0.000000 -0.000000 -0.000001 0.000000 16.876714 4.485643 -2.274780 5.124917 0.612713 2.261939 5.101476 0.713001 2.201722 0.611395 -1.476306 -0.480988 -10.836570 -8.786162 -0.326932 0.000001 -0.000000 0.000000 0.000001 -0.000000 0.000000 0.000001 -0.000000 0.000000 0.602973 -3.580514 6.013232 -51.656007 -41.367433 -69.010708 -0.000086 -77.833810 -0.000069 -36.365819 17.842431 21.121400 8.033894 -4.085225 -15.484718 5.779076 25.695942 1.851321 -0.000000 -0.000000 0.000003 -0.526172 -14.178563 -3.001499 2.061685 4.917325 -45.472763 -0.000002 -0.000001 -0.000000 2.112767 4.966896 -46.065781 2.115555 4.969562 -46.097981 0.000001 -0.000002 -0.000000 3.235041 5.839727 -57.941123 3.235015 5.839740 -57.941116 -0.000001 0.000001 -0.000002 8.180589 7.891761 -68.571800 4.391818 2.329792 -68.807783 0.000001 0.000002 -0.000003 -0.000003 -0.000003 -0.000001 1.694605 10.283212 -8.595637 -36.743313 9.640272 71.024815 0.002342 92.652015 -0.002399 -38.713768 -14.973451 -25.075754 -9.343876 6.863782 10.398697 16.256545 -24.815664 2.578977 0.000002 0.000001 -0.000001 0.473065 13.774865 -1.177055 2.337100 -5.203256 48.352063 -0.000002 0.000000 0.000005 3.927965 -6.260395 64.149908 3.931581 -6.262098 64.212937 -0.000000 0.000000 -0.000002 4.012702 -6.300422 64.925832 4.016469 -6.302178 64.988854 -0.000001 0.000000 0.000005 4.512608 -6.509306 69.412808 4.517434 -6.511104 69.475892 -0.000001 -0.000002 -0.000004 -0.000001 0.000001 -0.000004 0.000001 -0.000000 0.000000 0.000001 -0.000000 0.000000 0.000001 -0.000000 0.000000 0.000001 -0.000000 0.000000 0.000001 -0.000000 -0.000000 -0.000001 0.000001 0.000001 0.000001 -0.000000 0.000000 0.000001 -0.000000 -0.000000 -0.000001 0.000001 0.000001 0.000000 0.000000 -0.000000 0.000000 0.000000 -0.000000 -0.000001 -0.000000 -0.000000 
